<svg id="Layer_1" data-name="Layer 1" xmlns="http://www.w3.org/2000/svg" viewBox="0 0 841.89 595.28"><defs><style>.cls-1{fill:#00a651;}.cls-1,.cls-2{stroke:#231f20;stroke-miterlimit:10;}.cls-2{fill:#fff;}</style></defs><path class="cls-1" d="M599.66,223.5l-2,10.7-11.08,58.35-2,10.71-10.69,56.28c-.05.28-.05.56-.08.84-2.37,21.55-12.67,30.8-28,30.8H418.87c-15.33,0-18.62,0-28-30.72-.1-.31,0-.67-.11-1l-12.68-56.2-2.42-10.71L362.46,234.2l-2.41-10.7Z"/><polygon class="cls-2" points="599.66 223.5 597.63 234.2 362.46 234.2 360.05 223.5 599.66 223.5"/><polyline class="cls-2" points="584.52 303.26 586.55 292.55 375.63 292.55 378.05 303.26"/><path class="cls-1" d="M606.6,187l-6.94,36.53H360.05l-4.8-21.24H295l-5-20.49L287,169.87H240.94l-19.16-20.49H282l-.17-.7H300.9l5,20.5,3.1,12.59H599.77v.13h3.14a3.78,3.78,0,0,1,3.27,2A4.54,4.54,0,0,1,606.6,187Z"/></svg>