<svg id="Layer_1" data-name="Layer 1" xmlns="http://www.w3.org/2000/svg" viewBox="0 0 841.89 595.28"><defs><style>.cls-1{fill:#00a651;stroke:#231f20;stroke-miterlimit:10;}</style></defs><path class="cls-1" d="M630.69,232.71a26.94,26.94,0,0,1-10.33,21.22L455.81,383.81a27.52,27.52,0,0,1-12,5.47,28.09,28.09,0,0,1-7.3,1A27.68,27.68,0,0,1,420,384.84L251.22,260.38a26.91,26.91,0,0,1-5.57-38,27.8,27.8,0,0,1,38.55-5.49L436.7,329.32,582.2,214.47l3.74-2.95a27.82,27.82,0,0,1,37.6,2.95q.57.61,1.11,1.29A26.74,26.74,0,0,1,630.69,232.71Z"/></svg>