<svg id="Layer_1" data-name="Layer 1" xmlns="http://www.w3.org/2000/svg" viewBox="0 0 308.43 153.66"><path d="M568.18,284.8A18,18,0,0,1,562,298.43L427.48,414.58l-1.75,1.51A17.63,17.63,0,0,1,423,418a3.84,3.84,0,0,1-.39.22,18,18,0,0,1-22.31-4c-.3-.34-.58-.7-.84-1.06L266,298.71a18,18,0,1,1,23.43-27.33l124.8,107L538.41,271.19a18,18,0,0,1,29.77,13.61Z" transform="translate(-259.76 -266.81)"/><path d="M437.41,364.58A17.52,17.52,0,0,1,433,368a17.63,17.63,0,0,0,2.69-1.92Z" transform="translate(-259.76 -266.81)"/></svg>